<svg width="33" height="32" viewBox="0 0 33 32" fill="none" xmlns="http://www.w3.org/2000/svg">
<g clip-path="url(#clip0_44_6)">
<path d="M16.5 0C7.94485 0 0.984863 7.17749 0.984863 16C0.984863 24.8225 7.94485 32 16.5 32C25.0552 32 32.0152 24.8225 32.0152 16C32.0152 7.17749 25.0552 0 16.5 0ZM16.5 29.9185C9.05794 29.9185 3.00336 23.6748 3.00336 16C3.00336 8.32525 9.05794 2.08157 16.5 2.08157C23.9421 2.08157 29.9967 8.32536 29.9967 16C29.9967 23.6746 23.9422 29.9185 16.5 29.9185Z" fill="#4F4F4F"/>
<path d="M22.8292 18.6073C22.3596 18.2977 21.7355 18.4392 21.4351 18.9233C20.4602 20.4952 18.7995 21.4336 16.9928 21.4336C14.0875 21.4336 11.724 18.9961 11.724 16C11.724 13.004 14.0875 10.5664 16.9928 10.5664C18.7459 10.5664 20.3794 11.4623 21.3626 12.9629C21.6746 13.439 22.3018 13.5644 22.7639 13.2425C23.2257 12.9208 23.3472 12.2738 23.0351 11.7975C21.6762 9.72317 19.4173 8.48486 16.9928 8.48486C12.9746 8.48486 9.70551 11.8561 9.70551 16C9.70551 20.144 12.9746 23.5152 16.9928 23.5152C19.4914 23.5152 21.7878 22.2179 23.1356 20.0449C23.4359 19.5607 23.2987 18.9171 22.8292 18.6073Z" fill="#4F4F4F"/>
</g>
<defs>
<clipPath id="clip0_44_6">
<rect width="32" height="32" fill="white" transform="translate(0.5)"/>
</clipPath>
</defs>
</svg>
