<svg width="56" height="56" viewBox="0 0 56 56" fill="none" xmlns="http://www.w3.org/2000/svg">
<path fill-rule="evenodd" clip-rule="evenodd" d="M7 16.3333C7 13.756 9.08934 11.6666 11.6667 11.6666H44.3333C46.9107 11.6666 49 13.756 49 16.3333V39.6666C49 42.244 46.9107 44.3333 44.3333 44.3333H11.6667C9.08934 44.3333 7 42.244 7 39.6666V16.3333ZM11.6667 15.1666H44.3333C44.9777 15.1666 45.5 15.689 45.5 16.3333V18.5202L27.9995 31.6456L10.5 18.5209V16.3333C10.5 15.689 11.0223 15.1666 11.6667 15.1666ZM10.5 22.8959V39.6666C10.5 40.311 11.0223 40.8333 11.6667 40.8333H44.3333C44.9777 40.8333 45.5 40.311 45.5 39.6666V22.8952L27.9995 36.0206L10.5 22.8959Z" fill="#414B5A"/>
</svg>
