<svg width="33" height="32" viewBox="0 0 33 32" fill="none" xmlns="http://www.w3.org/2000/svg">
<g clip-path="url(#clip0_44_17)">
<path d="M12.5 25.3333C5.83329 27.3333 5.83329 22 3.16663 21.3333M21.8333 29.3333V24.1733C21.8833 23.5375 21.7974 22.8984 21.5813 22.2984C21.3652 21.6984 21.0239 21.1512 20.58 20.6933C24.7666 20.2267 29.1666 18.64 29.1666 11.36C29.1663 9.49843 28.4502 7.70826 27.1666 6.36C27.7744 4.73134 27.7315 2.93113 27.0466 1.33333C27.0466 1.33333 25.4733 0.866665 21.8333 3.30666C18.7773 2.47843 15.5559 2.47843 12.5 3.30666C8.85996 0.866665 7.28663 1.33333 7.28663 1.33333C6.60179 2.93113 6.55882 4.73134 7.16663 6.36C5.87346 7.71826 5.15666 9.52462 5.16663 11.4C5.16663 18.6267 9.56663 20.2133 13.7533 20.7333C13.3146 21.1866 12.9763 21.7272 12.7604 22.3199C12.5444 22.9126 12.4557 23.5441 12.5 24.1733V29.3333" stroke="#757575" stroke-width="4" stroke-linecap="round" stroke-linejoin="round"/>
</g>
<defs>
<clipPath id="clip0_44_17">
<rect width="32" height="32" fill="white" transform="translate(0.5)"/>
</clipPath>
</defs>
</svg>
