<svg width="275" height="218" viewBox="0 0 275 218" fill="none" xmlns="http://www.w3.org/2000/svg">
<g clip-path="url(#clip0_27_847)">
<path d="M0 208L0.5 -3.75338e-06" stroke="white" stroke-width="3" stroke-linecap="round"/>
<line x1="2" y1="206" x2="253" y2="206" stroke="white" stroke-width="4" stroke-linecap="round"/>
<line x1="3.51746" y1="-0.357063" x2="254.643" y2="204.483" stroke="white" stroke-width="5" stroke-linecap="round"/>
<path d="M113.936 131.685C112.634 131.685 111.44 131.525 110.352 131.205C109.264 130.864 108.282 130.363 107.408 129.701C106.533 129.04 105.754 128.24 105.072 127.301L107.792 124.229C108.837 125.68 109.861 126.683 110.864 127.237C111.866 127.792 112.997 128.069 114.256 128.069C114.981 128.069 115.642 127.963 116.24 127.749C116.837 127.515 117.306 127.205 117.648 126.821C117.989 126.416 118.16 125.957 118.16 125.445C118.16 125.083 118.085 124.752 117.936 124.453C117.808 124.133 117.605 123.856 117.328 123.621C117.05 123.365 116.709 123.131 116.304 122.917C115.898 122.704 115.44 122.523 114.928 122.373C114.416 122.224 113.85 122.085 113.232 121.957C112.058 121.723 111.034 121.413 110.16 121.029C109.285 120.624 108.549 120.133 107.952 119.557C107.354 118.96 106.917 118.299 106.64 117.573C106.362 116.827 106.224 115.984 106.224 115.045C106.224 114.107 106.426 113.243 106.832 112.453C107.258 111.664 107.834 110.981 108.56 110.405C109.285 109.829 110.128 109.381 111.088 109.061C112.048 108.741 113.082 108.581 114.192 108.581C115.45 108.581 116.57 108.731 117.552 109.029C118.554 109.328 119.429 109.776 120.176 110.373C120.944 110.949 121.573 111.653 122.064 112.485L119.312 115.205C118.885 114.544 118.405 114 117.872 113.573C117.338 113.125 116.762 112.795 116.144 112.581C115.525 112.347 114.874 112.229 114.192 112.229C113.424 112.229 112.752 112.336 112.176 112.549C111.621 112.763 111.184 113.072 110.864 113.477C110.544 113.861 110.384 114.331 110.384 114.885C110.384 115.312 110.48 115.696 110.672 116.037C110.864 116.357 111.13 116.645 111.472 116.901C111.834 117.157 112.293 117.381 112.848 117.573C113.402 117.765 114.032 117.936 114.736 118.085C115.909 118.32 116.965 118.64 117.904 119.045C118.842 119.429 119.642 119.899 120.304 120.453C120.965 120.987 121.466 121.605 121.808 122.309C122.149 122.992 122.32 123.76 122.32 124.613C122.32 126.085 121.968 127.355 121.264 128.421C120.581 129.467 119.61 130.277 118.352 130.853C117.093 131.408 115.621 131.685 113.936 131.685Z" fill="white"/>
<path d="M154.184 107.365V84.9654H158.344V103.525H168.68V107.365H154.184Z" fill="white"/>
</g>
<defs>
<clipPath id="clip0_27_847">
<rect width="275" height="218" fill="white"/>
</clipPath>
</defs>
</svg>
