<svg width="56" height="56" viewBox="0 0 56 56" fill="none" xmlns="http://www.w3.org/2000/svg">
<path d="M28 18.6667C26.1333 18.6667 24.5 20.3 24.5 22.1667C24.5 24.0333 26.1333 25.6667 28 25.6667C29.8667 25.6667 31.5 24.0333 31.5 22.1667C31.5 20.3 29.8667 18.6667 28 18.6667ZM28 7C19.6 7 12.8333 13.5333 12.8333 21.4667C12.8333 23.3333 13.5333 25.6667 14.9333 28.7C16.1 31.2667 17.7333 34.0667 19.6 37.1C21.2333 39.4333 26.6 45.9667 27.0667 46.2L28 47.3667L28.9333 46.2C29.4 45.7333 35 39.4333 36.4 37.1C38.2667 34.3 39.9 31.2667 41.0667 28.7C42.4667 25.6667 43.1667 23.3333 43.1667 21.4667C43.1667 13.5333 36.4 7 28 7ZM38.0333 27.3C36.8667 29.6333 35.4667 32.4333 33.6 35.2333C32.4333 36.8667 29.6333 40.3667 28 42.2333C26.3667 40.3667 23.5667 36.8667 22.4 35.2333C20.5333 32.4333 19.1333 29.8667 17.9667 27.5333C16.5667 24.2667 16.3333 22.4 16.3333 21.7C16.3333 15.6333 21.4667 10.7333 28 10.7333C34.5333 10.7333 39.6667 15.6333 39.6667 21.7C39.6667 22.1667 39.4333 24.0333 38.0333 27.3Z" fill="#414B5A"/>
</svg>
