<svg width="56" height="56" viewBox="0 0 56 56" fill="none" xmlns="http://www.w3.org/2000/svg">
<path fill-rule="evenodd" clip-rule="evenodd" d="M21.7764 34.2236C18.859 31.3062 16.4338 27.9432 14.5888 24.2662L19.456 21.0215C20.8745 20.0758 21.5562 18.3483 21.1657 16.6887L19.6268 10.1481C19.1928 8.30358 17.5468 7 15.652 7H7C7 12.5155 8.08636 17.977 10.1971 23.0727C12.3078 28.1684 15.4015 32.7984 19.3015 36.6985C23.2016 40.5985 27.8316 43.6922 32.9273 45.8029C38.023 47.9136 43.4845 49 49 49V40.9314C49 39.0365 47.6964 37.3906 45.8519 36.9566L39.3113 35.4176C37.6517 35.0271 35.9242 35.7088 34.9785 37.1274L32.0259 41.5562C28.2349 39.694 24.7709 37.2181 21.7764 34.2236ZM10.6594 10.5C10.9883 14.1024 11.8237 17.6452 13.1445 21.0226L17.5145 18.1093C17.7172 17.9742 17.8145 17.7274 17.7588 17.4903L16.2198 10.9497C16.1578 10.6862 15.9227 10.5 15.652 10.5H10.6594ZM35.2866 42.9749C38.5708 44.2268 42.0074 45.0218 45.5 45.3406V40.9314C45.5 40.6607 45.3138 40.4255 45.0503 40.3635L38.5097 38.8246C38.2726 38.7688 38.0258 38.8662 37.8907 39.0688L35.2866 42.9749Z" fill="#414B5A"/>
</svg>
